<svg width="64" height="64" viewBox="0 0 64 64" fill="none" xmlns="http://www.w3.org/2000/svg">
<path d="M45.5 33.2001C45.5 33.2001 45.6 33.2001 45.5 33.2001C47.4 33.2001 49.2 32.4001 50.5 31.1001C51.8 29.8001 52.5 28.0001 52.5 26.1001C52.5 22.2001 49.3 19.1001 45.5 19.1001C41.6 19.1001 38.5 22.3001 38.5 26.2001C38.5 28.1001 39.3 29.8001 40.6 31.2001C41.9 32.4001 43.7 33.2001 45.5 33.2001ZM45.5 20.6001C48.6 20.6001 51 23.1001 51.1 26.1001C51.1 27.6001 50.5 29.0001 49.5 30.0001C48.5 31.1001 47.1 31.6001 45.6 31.6001C44.2 31.6001 42.7 31.0001 41.7 30.0001C40.6 29.0001 40.1 27.6001 40.1 26.1001C40 23.1001 42.4 20.6001 45.5 20.6001Z" fill="#111111"/>
<path d="M59.9 33.3V27.4L59.8 18.9V18.8C59.8 14.9 56.6 11.8 52.7 11.8L38.2 11.9L24.3 12C24.2 12 24.1 11.9 24.1 11.9L23.9 11.5L14.1 11.6H13.7L13.5 12C13.5 12 13.4 12.1 13.3 12.1H11.2C7.2 12.1 4 15.4 4.1 19.3L4.3 46.9C4.3 48.4 4.9 49.9 6 50.9C7.1 52 8.5 52.5 10 52.5L52.9 52.2C54.8 52.2 56.6 51.4 58 50.1C59.4 48.8 60 47 60 45.1L59.9 33.3ZM38.2 13.4L52.6 13.3C55.7 13.3 58.3 15.8 58.3 18.9L58.4 27.3V33.3C58.4 34.8 57.8 36.2 56.8 37.2C55.8 38.3 54.4 38.8 52.9 38.9L38.4 39C36.9 39 35.5 38.4 34.5 37.4C33.4 36.4 32.9 35 32.8 33.5L32.7 19C32.6 15.9 35.1 13.4 38.2 13.4ZM56.8 49.1C55.7 50.2 54.3 50.8 52.8 50.8L10 51.1C8.9 51.1 7.8 50.7 7 49.9C6.2 49.1 5.8 48.1 5.7 46.9L5.5 19.2C5.5 16.1 8 13.5 11.1 13.5H13.4H13.7C13.9 13.4 14.2 13.3 14.5 13L23.2 12.9C23.4 13.1 23.7 13.3 24 13.4H24.1L33.9 13.3C32.3 14.6 31.2 16.6 31.2 18.9L31.3 33.4C31.3 35.3 32.1 37.1 33.4 38.4C34.7 39.7 36.5 40.4 38.4 40.4C38.4 40.4 38.4 40.4 38.5 40.4L53 40.3C54.9 40.3 56.7 39.5 58 38.2C58.2 38 58.4 37.8 58.6 37.5V44.9C58.5 46.6 57.9 48 56.8 49.1Z" fill="#111111"/>
<path d="M26 18L10.8 18.1C10.4 18.1 10.1 18.2 9.80002 18.5C9.50002 18.8 9.40002 19.1 9.40002 19.5L9.50002 38.6C9.50002 39 9.60002 39.3 9.90002 39.6C10.2 39.9 10.5 40 10.9 40L26.1 39.9C26.9 39.9 27.5 39.3 27.5 38.5L27.4 19.4C27.4 18.6 26.8 18 26 18ZM25.9 19.5L26 35.1C24.6 34.2 22.6 33.3 21.4 32.8L21.3 31.8C22.2 30.6 22.6 29.5 22.6 27.8C22.6 25.1 20.9 23.1 18.5 23.1C16.1 23.1 14.4 25.1 14.4 27.8C14.4 29.6 14.9 30.6 15.7 31.8V32.8C14.3 33.3 12.3 34.3 11 35.2L10.9 19.6L25.9 19.5ZM11 38.4V37C11.6 36.3 15 34.5 16.6 34C16.9 33.9 17.1 33.6 17.1 33.3L17.2 31.5C17.2 31.3 17.2 31.1 17 31C16.2 30 15.8 29.2 15.8 27.7C15.8 25.8 16.9 24.5 18.4 24.5C19.9 24.5 21 25.8 21 27.7C21 29.3 20.6 30.1 19.8 30.9C19.7 31 19.6 31.2 19.6 31.4L19.7 33.1C19.7 33.4 19.9 33.7 20.2 33.8C21.8 34.4 25 36 25.8 36.7V38.1L11 38.4Z" fill="#111111"/>
</svg>
