<svg width="64" height="64" viewBox="0 0 64 64" fill="none" xmlns="http://www.w3.org/2000/svg">
<mask id="mask0" mask-type="alpha" maskUnits="userSpaceOnUse" x="0" y="0" width="64" height="64">
<rect width="64" height="64" fill="#C4C4C4"/>
</mask>
<g mask="url(#mask0)">
<path fill-rule="evenodd" clip-rule="evenodd" d="M22.948 20.6466C24.5614 16.2303 28.9173 13.0793 34.0277 13.0793C40.2381 13.0793 45.3624 17.718 45.7599 23.6481C45.8504 23.6434 45.943 23.6407 46.0374 23.6407C49.5657 23.6407 52.4691 26.4004 52.4691 29.8497C52.4691 30.2651 52.4232 30.6726 52.3386 31.0657C56.2257 31.21 59.3764 34.2907 59.3764 38.1161C59.3764 42.0346 56.0704 45.1717 52.0534 45.1717H37.8601C37.4459 45.1717 37.1101 44.8359 37.1101 44.4217C37.1101 44.0075 37.4459 43.6717 37.8601 43.6717H52.0534C55.3 43.6717 57.8764 41.1494 57.8764 38.1161C57.8764 35.0828 55.3 32.5605 52.0534 32.5605C51.9139 32.5605 51.8116 32.5731 51.6754 32.5899C51.5904 32.6004 51.4922 32.6125 51.3637 32.6242C51.1006 32.6481 50.8443 32.5319 50.689 32.3181C50.5337 32.1044 50.5024 31.8247 50.6064 31.5819C50.8369 31.0441 50.9691 30.4536 50.9691 29.8497C50.9691 27.283 48.7924 25.1407 46.0374 25.1407C45.7393 25.1407 45.4518 25.1779 45.1408 25.2223C44.9255 25.2531 44.7076 25.1889 44.5433 25.0465C44.3791 24.904 44.2847 24.6973 44.2847 24.4799V24.3911C44.2847 18.9966 39.7259 14.5793 34.0277 14.5793C29.2549 14.5793 25.2784 17.7036 24.1224 21.8941C24.0619 22.1137 23.9048 22.2938 23.6955 22.3838C23.4863 22.4737 23.2475 22.4636 23.0465 22.3565C21.811 21.6975 20.3941 21.3083 18.8986 21.3083C14.047 21.3083 10.179 25.0568 10.179 29.6492C10.179 30.9223 10.5017 32.1228 11.0579 33.2353C11.1676 33.4547 11.1631 33.7139 11.0458 33.9294C10.9284 34.1448 10.7131 34.2893 10.4693 34.3162C7.98996 34.5895 6.12378 36.5892 6.12378 38.9628C6.12378 41.5295 8.30047 43.6717 11.0555 43.6717H26.452C26.8662 43.6717 27.202 44.0075 27.202 44.4217C27.202 44.8359 26.8662 45.1717 26.452 45.1717H11.0555C7.52725 45.1717 4.62378 42.4121 4.62378 38.9628C4.62378 36.1048 6.62287 33.7315 9.31913 33.0101C8.91307 31.9621 8.679 30.8373 8.679 29.6492C8.679 24.1703 13.2779 19.8083 18.8986 19.8083C20.3371 19.8083 21.7088 20.1148 22.948 20.6466ZM32.7502 31.4779L37.3403 35.8934C37.6388 36.1806 38.1136 36.1714 38.4007 35.8729C38.6879 35.5743 38.6787 35.0996 38.3802 34.8124L32.5202 29.1752C32.2302 28.8962 31.7718 28.8958 31.4813 29.1742L25.599 34.8114C25.2999 35.098 25.2898 35.5728 25.5764 35.8718C25.863 36.1709 26.3378 36.181 26.6369 35.8944L31.2502 31.4732V50.1706C31.2502 50.5848 31.586 50.9206 32.0002 50.9206C32.4145 50.9206 32.7502 50.5848 32.7502 50.1706V31.4779Z" fill="#111111"/>
</g>
</svg>
