<svg width="65" height="64" viewBox="0 0 65 64" fill="none" xmlns="http://www.w3.org/2000/svg">
<mask id="mask0" mask-type="alpha" maskUnits="userSpaceOnUse" x="0" y="0" width="65" height="64">
<rect x="0.5" width="64" height="64" fill="#C4C4C4"/>
</mask>
<g mask="url(#mask0)">
<path d="M23.0743 20.8173C24.6876 16.4009 29.0435 13.25 34.1539 13.25C40.3644 13.25 45.4887 17.8886 45.8861 23.8188C45.9766 23.8141 46.0692 23.8114 46.1636 23.8114C49.6919 23.8114 52.5954 26.5711 52.5954 30.0203C52.5954 30.4358 52.5495 30.8433 52.4648 31.2364C56.3519 31.3807 59.5026 34.4614 59.5026 38.2867C59.5026 42.2053 56.1966 45.3424 52.1796 45.3424H44C43.5858 45.3424 43.25 45.0066 43.25 44.5924C43.25 44.1782 43.5858 43.8424 44 43.8424H52.1796C55.4262 43.8424 58.0026 41.32 58.0026 38.2867C58.0026 35.2535 55.4262 32.7311 52.1796 32.7311C52.0402 32.7311 51.9378 32.7437 51.8016 32.7606C51.7166 32.7711 51.6185 32.7832 51.4899 32.7949C51.2268 32.8188 50.9705 32.7025 50.8152 32.4888C50.6599 32.275 50.6286 31.9953 50.7326 31.7525C50.9631 31.2148 51.0954 30.6242 51.0954 30.0203C51.0954 27.4536 48.9187 25.3114 46.1636 25.3114C45.8655 25.3114 45.5781 25.3485 45.267 25.393C45.0518 25.4237 44.8338 25.3596 44.6695 25.2171C44.5053 25.0747 44.4109 24.8679 44.4109 24.6505V24.5618C44.4109 19.1672 39.8521 14.75 34.1539 14.75C29.3811 14.75 25.4047 17.8743 24.2487 22.0648C24.1881 22.2844 24.031 22.4645 23.8218 22.5544C23.6125 22.6443 23.3737 22.6343 23.1727 22.5271C21.9373 21.8682 20.5203 21.479 19.0248 21.479C14.1733 21.479 10.3052 25.2275 10.3052 29.8198C10.3052 31.093 10.6279 32.2935 11.1841 33.4059C11.2939 33.6254 11.2893 33.8846 11.172 34.1C11.0546 34.3155 10.8394 34.4599 10.5955 34.4868C8.11618 34.7601 6.25 36.7598 6.25 39.1334C6.25 41.7001 8.42669 43.8424 11.1818 43.8424H19.0248C19.439 43.8424 19.7748 44.1782 19.7748 44.5924C19.7748 45.0066 19.439 45.3424 19.0248 45.3424H11.1818C7.65347 45.3424 4.75 42.5827 4.75 39.1334C4.75 36.2754 6.74909 33.9021 9.44535 33.1808C9.03929 32.1328 8.80522 31.0079 8.80522 29.8198C8.80522 24.341 13.4041 19.979 19.0248 19.979C20.4633 19.979 21.835 20.2855 23.0743 20.8173Z" fill="black"/>
<path fill-rule="evenodd" clip-rule="evenodd" d="M23.5 35C22.3954 35 21.5 35.8954 21.5 37V49C21.5 50.1046 22.3954 51 23.5 51H39.5C40.6046 51 41.5 50.1046 41.5 49V37C41.5 35.8954 40.6046 35 39.5 35H37.25V33C37.25 29.8244 34.6756 27.25 31.5 27.25C28.3244 27.25 25.75 29.8244 25.75 33V35H23.5ZM40 37C40 36.7239 39.7761 36.5 39.5 36.5H23.5C23.2239 36.5 23 36.7239 23 37V49C23 49.2761 23.2239 49.5 23.5 49.5H39.5C39.7761 49.5 40 49.2761 40 49V37ZM27.25 35H35.75V33C35.75 30.6528 33.8472 28.75 31.5 28.75C29.1528 28.75 27.25 30.6528 27.25 33V35Z" fill="black"/>
</g>
</svg>
