<svg width="64" height="64" viewBox="0 0 64 64" fill="none" xmlns="http://www.w3.org/2000/svg">
<mask id="mask0" mask-type="alpha" maskUnits="userSpaceOnUse" x="0" y="0" width="64" height="64">
<rect x="0.5" y="0.5" width="63" height="63" fill="#C4C4C4" stroke="white"/>
</mask>
<g mask="url(#mask0)">
<path fill-rule="evenodd" clip-rule="evenodd" d="M17.2598 4.69897C10.3214 4.69897 4.69678 10.3236 4.69678 17.262V46.738C4.69678 53.6764 10.3214 59.3011 17.2598 59.3011H46.7359C53.6742 59.3011 59.2989 53.6764 59.2989 46.738V17.262C59.2989 10.3236 53.6742 4.69897 46.7359 4.69897H17.2598ZM17.2598 3.19897C9.49301 3.19897 3.19678 9.49521 3.19678 17.262V46.738C3.19678 54.5048 9.49301 60.8011 17.2598 60.8011H46.7359C54.5026 60.8011 60.7989 54.5048 60.7989 46.738V17.262C60.7989 9.49521 54.5026 3.19897 46.7359 3.19897H17.2598Z" fill="#111111"/>
<path d="M25.8103 28.0054H28.4127C28.4127 28.0054 28.4159 31.1254 28.4216 32.7881C28.4227 33.0754 28.4413 33.367 28.4941 33.6489C28.6345 34.3979 29.0909 34.8618 29.8137 35.0522C30.4887 35.23 31.1677 35.2234 31.8376 35.0327C32.6737 34.7947 33.1451 34.206 33.3008 33.3587C33.3626 33.0232 33.3887 32.6771 33.3908 32.3354C33.4001 30.8414 33.3947 28.0055 33.3947 28.0055L36.009 27.9897V37.4571H33.3997V35.8546C33.3997 35.8546 33.2505 36.0501 33.2205 36.0911C32.5069 37.0595 31.5033 37.4067 30.3655 37.4596C29.5912 37.4955 28.8277 37.4303 28.1002 37.1339C26.9977 36.6849 26.3602 35.8285 26.0427 34.695C25.8456 33.9905 25.8024 33.2683 25.8013 32.5418C25.7992 30.9553 25.8103 28.0054 25.8103 28.0054Z" fill="#111111"/>
<path d="M25.8005 37.4684L24.0958 34.9428C24.6896 34.0023 25.1803 32.6672 25.1803 31.2737C25.1803 27.2676 22.3808 25.073 18.9197 25.073C15.4754 25.073 12.676 27.2676 12.676 31.2737C12.676 35.3495 15.4754 37.4571 18.9197 37.4571C20.1922 37.4571 21.1487 37.2375 22.1497 36.6627L22.7079 37.4684H25.8005ZM18.9197 34.9315C16.7649 34.9315 15.0174 33.7993 15.0174 31.2737C15.0174 28.7307 16.7649 27.616 18.9197 27.616C21.0744 27.616 22.8219 28.7656 22.8219 31.2737C22.8219 33.7296 21.0744 34.9315 18.9197 34.9315Z" fill="#111111"/>
<path d="M37.4667 27.9897H39.6542V37.4686H37.4667V27.9897Z" fill="#111111"/>
<path d="M37.4667 25.073H39.6542V27.2604H37.4667V25.073Z" fill="#111111"/>
<path d="M51.0597 28.1718H47.5185L43.6866 32.0261V25.073H41.1135V37.4684H43.7002L43.6934 36.531L43.7002 35.5936L45.5439 33.7258L48.1652 37.4684H51.3215L47.4107 31.844L51.0597 28.1718Z" fill="#111111"/>
</g>
</svg>
