<svg width="64" height="64" viewBox="0 0 64 64" fill="none" xmlns="http://www.w3.org/2000/svg">
<mask id="mask0" mask-type="alpha" maskUnits="userSpaceOnUse" x="0" y="0" width="64" height="64">
<path d="M0 0H64V64H0V0Z" fill="#C4C4C4"/>
</mask>
<g mask="url(#mask0)">
<path fill-rule="evenodd" clip-rule="evenodd" d="M9.67041 9.92651C9.67041 9.5123 10.0062 9.17651 10.4204 9.17651H31.8792C32.0827 9.17651 32.2774 9.25917 32.4187 9.40552L52.692 30.3988C52.7008 30.4079 52.7093 30.4171 52.7176 30.4266C53.644 31.488 54.1505 32.9054 54.1505 34.3657C54.1505 35.8261 53.644 37.2435 52.7176 38.3049C52.7015 38.3232 52.6846 38.3408 52.6669 38.3575L37.0985 53.0283C36.6405 53.5433 36.0941 53.9583 35.4864 54.2452C34.8675 54.5374 34.1999 54.6896 33.5227 54.6896C32.8456 54.6896 32.178 54.5374 31.559 54.2452C30.9538 53.9595 30.4092 53.5466 29.9523 53.0343L9.91745 34.9221C9.76016 34.7799 9.67041 34.5778 9.67041 34.3657V9.92651ZM11.1704 10.6765V34.0327L30.9893 51.9497C31.0107 51.9691 31.0311 51.9897 31.0502 52.0115C31.3844 52.3926 31.7759 52.6888 32.1994 52.8888C32.6226 53.0885 33.0719 53.1896 33.5227 53.1896C33.9736 53.1896 34.4229 53.0885 34.846 52.8888C35.2695 52.6888 35.6611 52.3926 35.9953 52.0115C36.011 51.9936 36.0275 51.9765 36.0448 51.9602L51.6104 37.292C52.2686 36.5241 52.6505 35.4752 52.6505 34.3657C52.6505 33.2501 52.2643 32.1957 51.5993 31.4266L31.5609 10.6765H11.1704Z" fill="#111111"/>
<circle cx="20.1024" cy="20.6375" r="2.76007" fill="#111111"/>
</g>
</svg>
